<svg width="1600" height="900" viewBox="0 0 1600 900" fill="none" xmlns="http://www.w3.org/2000/svg">
  <defs>
    <linearGradient id="sky" x1="800" y1="0" x2="800" y2="900" gradientUnits="userSpaceOnUse">
      <stop stop-color="#F6F8FB"/>
      <stop offset="0.58" stop-color="#EEF3F8"/>
      <stop offset="1" stop-color="#F9FBFD"/>
    </linearGradient>
    <radialGradient id="sun" cx="0" cy="0" r="1" gradientUnits="userSpaceOnUse" gradientTransform="translate(813 801) rotate(90) scale(155 295)">
      <stop stop-color="#FFF5C7"/>
      <stop offset="0.45" stop-color="#FFF3BF" stop-opacity="0.75"/>
      <stop offset="1" stop-color="#FFF1B1" stop-opacity="0"/>
    </radialGradient>
    <linearGradient id="ocean" x1="812" y1="724" x2="812" y2="900" gradientUnits="userSpaceOnUse">
      <stop stop-color="#D9E8F9"/>
      <stop offset="0.55" stop-color="#94B7DC"/>
      <stop offset="1" stop-color="#5F8FBE"/>
    </linearGradient>
    <linearGradient id="landA" x1="164" y1="198" x2="594" y2="530" gradientUnits="userSpaceOnUse">
      <stop stop-color="#2C9ED0"/>
      <stop offset="1" stop-color="#71CEB7"/>
    </linearGradient>
    <linearGradient id="landB" x1="876" y1="198" x2="1458" y2="473" gradientUnits="userSpaceOnUse">
      <stop stop-color="#34B6D7"/>
      <stop offset="0.55" stop-color="#6ED0C1"/>
      <stop offset="1" stop-color="#5CA4EC"/>
    </linearGradient>
    <linearGradient id="landC" x1="825" y1="350" x2="1034" y2="730" gradientUnits="userSpaceOnUse">
      <stop stop-color="#B8D364"/>
      <stop offset="1" stop-color="#E4E870"/>
    </linearGradient>
    <filter id="softShadow" x="-40" y="-40" width="1680" height="980" filterUnits="userSpaceOnUse" color-interpolation-filters="sRGB">
      <feDropShadow dx="0" dy="16" stdDeviation="20" flood-color="#A8B9C9" flood-opacity="0.28"/>
    </filter>
    <filter id="glow" x="-40" y="-40" width="1680" height="980" filterUnits="userSpaceOnUse" color-interpolation-filters="sRGB">
      <feGaussianBlur stdDeviation="4" result="blur"/>
      <feMerge>
        <feMergeNode in="blur"/>
        <feMergeNode in="SourceGraphic"/>
      </feMerge>
    </filter>
  </defs>

  <rect width="1600" height="900" fill="url(#sky)"/>
  <ellipse cx="224" cy="122" rx="261" ry="158" fill="#DDE9F5" fill-opacity="0.68"/>
  <ellipse cx="1369" cy="95" rx="291" ry="168" fill="#E1EAF4" fill-opacity="0.72"/>
  <ellipse cx="816" cy="812" rx="346" ry="165" fill="url(#sun)"/>

  <g opacity="0.75">
    <path d="M78 813C110 765 140 756 177 768C145 800 122 828 92 862C82 849 76 831 78 813Z" fill="#F4F8FC"/>
    <path d="M1497 803C1531 761 1560 756 1585 766C1576 808 1561 842 1543 866C1513 857 1497 837 1497 803Z" fill="#F4F8FC"/>
  </g>

  <g filter="url(#softShadow)">
    <path d="M35 296L108 265L205 240L280 246L337 229L409 223L485 236L560 257L626 284L651 329L640 364L587 390L505 401L442 423L379 450L317 455L255 441L196 419L142 382L94 348L35 296Z" fill="url(#landA)" stroke="white" stroke-width="3"/>
    <path d="M391 452L451 476L508 536L520 618L487 735L434 820L393 776L371 710L360 636L341 577L349 520L391 452Z" fill="#73D4C0" stroke="white" stroke-width="3"/>
    <path d="M636 173L705 156L761 170L796 206L778 246L732 258L688 247L648 223L636 173Z" fill="#4FB7DE" stroke="white" stroke-width="3"/>
    <path d="M867 216L915 208L956 221L964 258L932 286L884 282L851 255L867 216Z" fill="#3BB1DA" stroke="white" stroke-width="3"/>
    <path d="M874 320L951 294L1042 306L1108 332L1183 320L1260 341L1344 375L1413 409L1442 452L1410 484L1317 485L1221 475L1140 453L1080 441L1022 448L953 432L912 400L874 320Z" fill="url(#landB)" stroke="white" stroke-width="3"/>
    <path d="M948 452L1004 431L1063 447L1101 494L1090 572L1064 643L1008 726L961 764L913 708L892 637L883 575L898 513L948 452Z" fill="url(#landC)" stroke="white" stroke-width="3"/>
    <path d="M1187 461L1237 451L1279 468L1292 517L1265 565L1223 573L1179 542L1166 500L1187 461Z" fill="#60CEC0" stroke="white" stroke-width="3"/>
    <path d="M1395 676L1464 642L1519 670L1528 734L1488 789L1428 783L1385 740L1395 676Z" fill="#2997DA" stroke="white" stroke-width="3"/>
  </g>

  <g opacity="0.58" stroke="white" stroke-width="2">
    <path d="M381 338C511 309 711 303 937 356"/>
    <path d="M381 338C570 360 711 421 996 503"/>
    <path d="M450 389C632 369 868 379 1184 370"/>
    <path d="M508 536C742 467 982 439 1269 468"/>
    <path d="M1044 284C1132 277 1224 279 1397 339"/>
    <path d="M1078 321C1163 304 1268 307 1473 338"/>
    <path d="M1076 570C1203 527 1328 529 1449 734"/>
    <path d="M959 620C1074 562 1184 541 1336 548"/>
    <path d="M956 763C842 691 648 662 508 536"/>
  </g>

  <g filter="url(#glow)">
    <g fill="white">
      <circle cx="205" cy="240" r="5"/>
      <circle cx="205" cy="338" r="5"/>
      <circle cx="256" cy="418" r="5"/>
      <circle cx="450" cy="355" r="6"/>
      <circle cx="508" cy="536" r="6"/>
      <circle cx="493" cy="750" r="5"/>
      <circle cx="933" cy="256" r="6"/>
      <circle cx="973" cy="307" r="6"/>
      <circle cx="1044" cy="284" r="6"/>
      <circle cx="1184" cy="296" r="6"/>
      <circle cx="1294" cy="323" r="6"/>
      <circle cx="1397" cy="338" r="5"/>
      <circle cx="1202" cy="557" r="6"/>
      <circle cx="1092" cy="505" r="6"/>
      <circle cx="959" cy="620" r="6"/>
      <circle cx="1007" cy="728" r="6"/>
      <circle cx="956" cy="763" r="5"/>
      <circle cx="1336" cy="548" r="6"/>
      <circle cx="1449" cy="734" r="6"/>
    </g>
  </g>

  <path d="M320 839C500 786 1088 780 1285 839" stroke="white" stroke-opacity="0.55" stroke-width="2"/>
  <path d="M0 900V835C182 780 433 752 801 752C1169 752 1412 781 1600 835V900H0Z" fill="url(#ocean)"/>
  <g opacity="0.78" stroke="white" stroke-width="1.5">
    <path d="M196 852C347 815 548 797 801 797C1054 797 1255 815 1406 852"/>
    <path d="M250 881C392 846 576 829 801 829C1026 829 1210 846 1352 881"/>
    <path d="M351 776C501 754 650 744 801 744C952 744 1101 754 1251 776"/>
    <path d="M432 820C557 805 681 798 801 798C921 798 1045 805 1170 820"/>
    <path d="M503 860C603 846 701 840 801 840C901 840 999 846 1099 860"/>
  </g>
  <g fill="white" filter="url(#glow)">
    <circle cx="453" cy="841" r="4.5"/>
    <circle cx="577" cy="818" r="4"/>
    <circle cx="683" cy="833" r="4.5"/>
    <circle cx="801" cy="809" r="6"/>
    <circle cx="912" cy="835" r="4.5"/>
    <circle cx="1043" cy="822" r="4.5"/>
    <circle cx="1159" cy="846" r="4"/>
    <circle cx="1294" cy="830" r="5"/>
  </g>
</svg>
